<svg xmlns="http://www.w3.org/2000/svg" viewBox="0 0 90 60">
  <path fill="#002395" d="M0 0h90v60H0z"/>
  <path fill="#fecb00" d="M27 0h39L66 60z"/>
  <g fill="#fff">
    <path d="m25 0 1.4 4.2h4.4l-3.6 2.6 1.4 4.2L25 8.4 21.4 11l1.4-4.2-3.6-2.6h4.4z"/>
    <path d="m31 10 1.4 4.2h4.4l-3.6 2.6 1.4 4.2-3.6-2.6-3.6 2.6 1.4-4.2-3.6-2.6h4.4z"/>
    <path d="m37 20 1.4 4.2h4.4l-3.6 2.6 1.4 4.2-3.6-2.6-3.6 2.6 1.4-4.2-3.6-2.6h4.4z"/>
    <path d="m43 30 1.4 4.2h4.4l-3.6 2.6 1.4 4.2-3.6-2.6-3.6 2.6 1.4-4.2-3.6-2.6h4.4z"/>
    <path d="m49 40 1.4 4.2h4.4l-3.6 2.6 1.4 4.2-3.6-2.6-3.6 2.6 1.4-4.2-3.6-2.6h4.4z"/>
    <path d="m55 50 1.4 4.2h4.4l-3.6 2.6 1.1 3.2h-6.6l1.1-3.2-3.6-2.6h4.4z"/>
  </g>
</svg>
