<svg xmlns="http://www.w3.org/2000/svg" viewBox="0 0 90 60">
  <path fill="#0073cf" d="M0 0h90v20H0zM0 40h90v20H0z"/>
  <path fill="#fff" d="M0 20h90v20H0z"/>
  <g fill="#0073cf">
    <path d="m30 23 1 3h3.2l-2.6 1.9 1 3-2.6-1.8-2.6 1.8 1-3-2.6-1.9H29z"/>
    <path d="m60 23 1 3h3.2l-2.6 1.9 1 3-2.6-1.8-2.6 1.8 1-3-2.6-1.9H59z"/>
    <path d="m45 26 1 3h3.2l-2.6 1.9 1 3-2.6-1.8-2.6 1.8 1-3-2.6-1.9H44z"/>
    <path d="m30 31 1 3h3.2l-2.6 1.9 1 3-2.6-1.8-2.6 1.8 1-3-2.6-1.9H29z"/>
    <path d="m60 31 1 3h3.2l-2.6 1.9 1 3-2.6-1.8-2.6 1.8 1-3-2.6-1.9H59z"/>
  </g>
</svg>
