<svg xmlns="http://www.w3.org/2000/svg" viewBox="0 0 90 60">
  <path fill="#00247d" d="M0 0h90v60H0z"/>
  <path stroke="#fff" stroke-width="8" d="m0 0 36 24M36 0 0 24"/>
  <path stroke="#cf142b" stroke-width="4" d="m0 0 36 24M36 0 0 24"/>
  <path fill="#fff" d="M15 0h6v24h-6zM0 9h36v6H0z"/>
  <path fill="#cf142b" d="M16.5 0h3v24h-3zM0 10.5h36v3H0z"/>
  <g fill="#cc142b" stroke="#fff" stroke-width="1.2">
    <path d="m59 11 1.5 4.5h4.7l-3.8 2.8 1.5 4.5-3.9-2.7-3.8 2.7 1.4-4.5-3.8-2.8h4.7z"/>
    <path d="m73 25 1.3 4h4.2l-3.4 2.5 1.3 4-3.4-2.4-3.4 2.4 1.3-4-3.4-2.5h4.2z"/>
    <path d="m56 39 1.3 4h4.2l-3.4 2.5 1.3 4-3.4-2.4-3.4 2.4 1.3-4-3.4-2.5h4.2z"/>
    <path d="m75 45 1 3h3.2l-2.6 1.9 1 3-2.6-1.8-2.6 1.8 1-3-2.6-1.9H74z"/>
  </g>
</svg>
