<svg xmlns="http://www.w3.org/2000/svg" viewBox="0 0 90 60">
  <path fill="#b22234" d="M0 0h90v60H0z"/>
  <path fill="#fff" d="M0 5h90v5H0zm0 10h90v5H0zm0 10h90v5H0zm0 10h90v5H0zm0 10h90v5H0zm0 10h90v5H0z"/>
  <path fill="#3c3b6e" d="M0 0h38v32H0z"/>
  <g fill="#fff">
    <circle cx="7" cy="6" r="1.2"/><circle cx="16" cy="6" r="1.2"/><circle cx="25" cy="6" r="1.2"/>
    <circle cx="11" cy="13" r="1.2"/><circle cx="20" cy="13" r="1.2"/><circle cx="29" cy="13" r="1.2"/>
    <circle cx="7" cy="20" r="1.2"/><circle cx="16" cy="20" r="1.2"/><circle cx="25" cy="20" r="1.2"/>
    <circle cx="11" cy="27" r="1.2"/><circle cx="20" cy="27" r="1.2"/><circle cx="29" cy="27" r="1.2"/>
  </g>
</svg>
